<svg xmlns="http://www.w3.org/2000/svg" width="25.263" height="25.2" viewBox="0 0 25.263 25.2">
    <defs>
        <style>
            .cls-1{fill:none;stroke:#000;stroke-width:1.5px}
        </style>
    </defs>
    <path id="Icon_awesome-wheelchair" d="M22.963 17.852l.659 1.327a.741.741 0 0 1-.334.993l-3.03 1.522a1.482 1.482 0 0 1-2-.7l-2.906-6.184H8.887a1.481 1.481 0 0 1-1.466-1.27C5.852 2.56 5.942 3.242 5.925 2.962a2.962 2.962 0 1 1 3.4 2.931l.216 1.513h6.016a.741.741 0 0 1 .741.741v1.481a.741.741 0 0 1-.741.741H9.96l.212 1.481h6.121a1.481 1.481 0 0 1 1.341.851l2.666 5.666 1.675-.849a.741.741 0 0 1 .988.334zm-8.551-1.558h-1.134a5.184 5.184 0 1 1-7.708-5.238l-.44-3.071A8.146 8.146 0 1 0 15.6 18.83z" class="cls-1" data-name="Icon awesome-wheelchair" transform="translate(.75 .751)"/>
</svg>