<svg xmlns="http://www.w3.org/2000/svg" width="30.032" height="20.5" viewBox="0 0 30.032 20.5">
    <defs>
        <style>
            .cls-1{fill:none;stroke:#000;stroke-width:1.5px}
        </style>
    </defs>
    <path id="Icon_awesome-road" d="M28.361 19.257L21.444 3.424a1.506 1.506 0 0 0-1.371-.924h-4.829l.121 1.146a.4.4 0 0 1-.394.437h-1.442a.4.4 0 0 1-.394-.437l.121-1.146H8.427a1.506 1.506 0 0 0-1.372.924L.139 19.257A1.58 1.58 0 0 0 1.511 21.5h9.739l.51-4.833a.792.792 0 0 1 .787-.709h3.4a.792.792 0 0 1 .787.709l.51 4.833h9.739a1.58 1.58 0 0 0 1.378-2.243zM12.884 6.021a.4.4 0 0 1 .394-.354h1.944a.4.4 0 0 1 .394.354l.228 2.156a.594.594 0 0 1-.59.656h-2.006a.593.593 0 0 1-.59-.656l.227-2.156zm2.733 8.354h-2.735a.792.792 0 0 1-.787-.875l.251-2.375a.792.792 0 0 1 .787-.709h2.234a.792.792 0 0 1 .787.709L16.4 13.5a.792.792 0 0 1-.782.875z" class="cls-1" data-name="Icon awesome-road" transform="translate(.766 -1.75)"/>
</svg>