<svg xmlns="http://www.w3.org/2000/svg" width="32" height="21" viewBox="0 0 32 21">
    <defs>
        <style>
            .cls-1{fill:none;stroke:#000}
        </style>
    </defs>
    <g id="icon_family" data-name="icon family" transform="translate(-971.5 -319)">
        <path id="Icon_awesome-child" d="M4.688 2.813A2.813 2.813 0 1 1 7.5 5.625a2.812 2.812 0 0 1-2.812-2.812zm9.946.054a1.25 1.25 0 0 0-1.768 0L9.482 6.25H5.518L2.134 2.866A1.25 1.25 0 0 0 .366 4.634l3.7 3.7V18.75A1.25 1.25 0 0 0 5.313 20h.625a1.25 1.25 0 0 0 1.25-1.25v-4.375h.625v4.375A1.25 1.25 0 0 0 9.063 20h.625a1.25 1.25 0 0 0 1.25-1.25V8.33l3.7-3.7a1.25 1.25 0 0 0-.004-1.764z" class="cls-1" data-name="Icon awesome-child" transform="translate(972 319.5)"/>
        <path id="Icon_awesome-child-2" d="M4.688 2.813A2.813 2.813 0 1 1 7.5 5.625a2.812 2.812 0 0 1-2.812-2.812zm9.946.054a1.25 1.25 0 0 0-1.768 0L9.482 6.25H5.518L2.134 2.866A1.25 1.25 0 0 0 .366 4.634l3.7 3.7V18.75A1.25 1.25 0 0 0 5.313 20h.625a1.25 1.25 0 0 0 1.25-1.25v-4.375h.625v4.375A1.25 1.25 0 0 0 9.063 20h.625a1.25 1.25 0 0 0 1.25-1.25V8.33l3.7-3.7a1.25 1.25 0 0 0-.004-1.764z" class="cls-1" data-name="Icon awesome-child" transform="translate(988 319.5)"/>
    </g>
</svg>