<svg width="25" height="25" viewBox="0 0 25 25" fill="none" xmlns="http://www.w3.org/2000/svg">
<g clip-path="url(#clip0_2186_94653)">
<path d="M9.52637 14.5996C9.52637 15.353 9.82567 16.0756 10.3584 16.6084C10.8912 17.1411 11.6138 17.4404 12.3672 17.4404C13.1206 17.4404 13.8432 17.1411 14.376 16.6084C14.9087 16.0756 15.208 15.353 15.208 14.5996C15.208 13.8462 14.9087 13.1236 14.376 12.5908C13.8432 12.0581 13.1206 11.7588 12.3672 11.7588C11.6138 11.7588 10.8912 12.0581 10.3584 12.5908C9.82567 13.1236 9.52637 13.8462 9.52637 14.5996Z" stroke="#121212" stroke-width="1.75" stroke-linecap="round" stroke-linejoin="round"/>
<path d="M16.6279 23.4775C16.611 22.3585 16.1546 21.2911 15.3573 20.5058C14.56 19.7205 13.4858 19.2803 12.3667 19.2803C11.2476 19.2803 10.1734 19.7205 9.3761 20.5058C8.57881 21.2911 8.12241 22.3585 8.10547 23.4775" stroke="#121212" stroke-width="1.75" stroke-linecap="round" stroke-linejoin="round"/>
<path d="M17.8711 16.5439C17.8711 17.1137 18.0974 17.6602 18.5004 18.0631C18.9033 18.466 19.4497 18.6924 20.0195 18.6924C20.5893 18.6924 21.1358 18.466 21.5387 18.0631C21.9416 17.6602 22.168 17.1137 22.168 16.5439C22.168 15.9741 21.9416 15.4277 21.5387 15.0248C21.1358 14.6219 20.5893 14.3955 20.0195 14.3955C19.4497 14.3955 18.9033 14.6219 18.5004 15.0248C18.0974 15.4277 17.8711 15.9741 17.8711 16.5439Z" stroke="#121212" stroke-width="1.75" stroke-linecap="round" stroke-linejoin="round"/>
<path d="M23.2422 22.9892C23.2416 22.4059 23.0828 21.8337 22.7826 21.3336C22.4824 20.8335 22.0521 20.4242 21.5375 20.1495C21.023 19.8747 20.4436 19.7447 19.861 19.7734C19.2784 19.8021 18.7145 19.9884 18.2295 20.3124" stroke="#121212" stroke-width="1.75" stroke-linecap="round" stroke-linejoin="round"/>
<path d="M2.83203 16.5439C2.83203 17.1137 3.05838 17.6602 3.46129 18.0631C3.8642 18.466 4.41067 18.6924 4.98047 18.6924C5.55027 18.6924 6.09673 18.466 6.49964 18.0631C6.90255 17.6602 7.12891 17.1137 7.12891 16.5439C7.12891 15.9741 6.90255 15.4277 6.49964 15.0248C6.09673 14.6219 5.55027 14.3955 4.98047 14.3955C4.41067 14.3955 3.8642 14.6219 3.46129 15.0248C3.05838 15.4277 2.83203 15.9741 2.83203 16.5439Z" stroke="#121212" stroke-width="1.75" stroke-linecap="round" stroke-linejoin="round"/>
<path d="M1.75781 22.9892C1.75836 22.4059 1.91721 21.8337 2.21741 21.3336C2.51762 20.8335 2.94793 20.4242 3.46246 20.1495C3.97698 19.8747 4.55643 19.7447 5.13902 19.7734C5.7216 19.8021 6.28547 19.9884 6.77051 20.3124" stroke="#121212" stroke-width="1.75" stroke-linecap="round" stroke-linejoin="round"/>
<path d="M12.7434 1.81955L13.8078 4.11349H15.8781C15.9826 4.10945 16.0857 4.13772 16.1734 4.19444C16.2612 4.25117 16.3293 4.33358 16.3685 4.43045C16.4077 4.52732 16.4161 4.63392 16.3925 4.73571C16.3688 4.8375 16.3144 4.92953 16.2365 4.99923L14.4387 6.76779L15.4348 9.0549C15.4786 9.15966 15.4884 9.27553 15.4629 9.38617C15.4373 9.49682 15.3776 9.59663 15.2923 9.67152C15.2069 9.74642 15.1002 9.79261 14.9871 9.80357C14.8741 9.81454 14.7605 9.78972 14.6623 9.73263L12.2551 8.37912L9.84885 9.73263C9.75062 9.78942 9.63707 9.81401 9.52414 9.80294C9.41122 9.79187 9.3046 9.74571 9.21926 9.67093C9.13393 9.59615 9.07416 9.49652 9.04836 9.38603C9.02256 9.27553 9.03202 9.15974 9.07541 9.0549L10.0715 6.76779L8.27463 4.99923C8.19645 4.92993 8.14159 4.83815 8.11758 4.73646C8.09356 4.63478 8.10156 4.52816 8.14047 4.43119C8.17938 4.33423 8.24731 4.25166 8.33496 4.19479C8.42261 4.13792 8.52569 4.10952 8.6301 4.11349H10.7014L11.7668 1.81955C11.8132 1.73002 11.8832 1.65496 11.9693 1.60257C12.0554 1.55017 12.1543 1.52246 12.2551 1.52246C12.3559 1.52246 12.4548 1.55017 12.5409 1.60257C12.627 1.65496 12.697 1.73002 12.7434 1.81955Z" stroke="#121212" stroke-width="1.75" stroke-linecap="round" stroke-linejoin="round"/>
</g>
<defs>
<clipPath id="clip0_2186_94653">
<rect width="25" height="25" fill="white"/>
</clipPath>
</defs>
</svg>