<svg xmlns="http://www.w3.org/2000/svg" width="29.563" height="24.886" viewBox="0 0 29.563 24.886">
    <defs>
        <style>
            .cls-1{fill:none;stroke:#000;stroke-width:1.5px}
        </style>
    </defs>
    <path id="Icon_awesome-luggage-cart" d="M60.464 23.386H62.8V7.016h-2.336a2.339 2.339 0 0 0-2.339 2.339v11.693a2.339 2.339 0 0 0 2.339 2.338zm25.725-2.339V9.354a2.339 2.339 0 0 0-2.339-2.338h-2.339v16.37h2.339a2.339 2.339 0 0 0 2.338-2.338zM79.173 7.016V3.508A3.508 3.508 0 0 0 75.665 0h-7.016a3.508 3.508 0 0 0-3.508 3.508v19.878h14.032zm-3.508 0h-7.016V3.508h7.016z" class="cls-1" data-name="Icon awesome-luggage-cart" transform="translate(-57.375 .75)"/>
</svg>