<svg xmlns="http://www.w3.org/2000/svg" width="22.234" height="22.275" viewBox="0 0 22.234 22.275">
    <defs>
        <style>
            .cls-1{fill:none;stroke:#000;stroke-linecap:round;stroke-linejoin:round;stroke-width:1.667px}
        </style>
    </defs>
    <path id="Icon_feather-phone" d="M22.325 17.095v3.1a2.068 2.068 0 0 1-2.254 2.068 20.464 20.464 0 0 1-8.924-3.175 20.164 20.164 0 0 1-6.2-6.2 20.464 20.464 0 0 1-3.179-8.967 2.068 2.068 0 0 1 2.058-2.254h3.1A2.068 2.068 0 0 1 9 3.445a13.277 13.277 0 0 0 .72 2.906 2.068 2.068 0 0 1-.465 2.182L7.942 9.846a16.545 16.545 0 0 0 6.2 6.2l1.313-1.313a2.068 2.068 0 0 1 2.182-.465 13.277 13.277 0 0 0 2.91.732 2.068 2.068 0 0 1 1.779 2.1z" class="cls-1" data-name="Icon feather-phone" transform="translate(-.926 -.833)"/>
</svg>