<svg xmlns="http://www.w3.org/2000/svg" width="28.568" height="21.811" viewBox="0 0 28.568 21.811">
    <defs>
        <style>
            .cls-1{fill:none;stroke:#000;stroke-width:1.5px}
        </style>
    </defs>
    <path id="Icon_awesome-plane-departure" d="M26.383 18.839H.677a.676.676 0 0 0-.677.676v1.353a.676.676 0 0 0 .676.676h25.707a.676.676 0 0 0 .676-.676v-1.353a.676.676 0 0 0-.676-.676zM3.406 14.326a1.4 1.4 0 0 0 1.029.453l5.519-.008a2.774 2.774 0 0 0 1.253-.3l12.3-6.243a7.187 7.187 0 0 0 2.834-2.465c.774-1.2.858-2.076.553-2.691S25.849 2 24.433 1.91a7.1 7.1 0 0 0-3.648.824l-4.166 2.114-9.246-3.47a.753.753 0 0 0-.761-.047l-2.78 1.411a.773.773 0 0 0-.219 1.206L10.218 8.1l-4.364 2.211L2.8 8.769a.753.753 0 0 0-.679 0l-1.7.861a.773.773 0 0 0-.236 1.187z" class="cls-1" data-name="Icon awesome-plane-departure" transform="translate(.754 -.484)"/>
</svg>