<svg xmlns="http://www.w3.org/2000/svg" width="28.032" height="23.042" viewBox="0 0 28.032 23.042">
    <g data-name="icon fees">
        <path d="M7.015 10.113c-2.906-.755-3.84-1.536-3.84-2.752 0-1.4 1.293-2.368 3.456-2.368 2.279 0 3.124 1.088 3.2 2.688h2.829A5.1 5.1 0 0 0 8.551 2.8V0h-3.84v2.765C2.227 3.3.233 4.916.233 7.386c0 2.957 2.445 4.429 6.017 5.287 3.2.768 3.84 1.895 3.84 3.085 0 .883-.627 2.291-3.456 2.291-2.637 0-3.674-1.178-3.815-2.688H0c.154 2.8 2.253 4.378 4.711 4.9v2.778h3.84V20.29c2.5-.474 4.48-1.92 4.48-4.544 0-3.636-3.111-4.877-6.017-5.633zM22.015 10.113c-2.906-.755-3.84-1.536-3.84-2.752 0-1.4 1.293-2.368 3.456-2.368 2.279 0 3.124 1.088 3.2 2.688h2.829A5.1 5.1 0 0 0 23.551 2.8V0h-3.84v2.765c-2.484.535-4.478 2.151-4.478 4.621 0 2.957 2.445 4.429 6.017 5.287 3.2.768 3.84 1.895 3.84 3.085 0 .883-.627 2.291-3.456 2.291-2.637 0-3.674-1.178-3.815-2.688H15c.154 2.8 2.253 4.378 4.711 4.9v2.778h3.84V20.29c2.5-.474 4.48-1.92 4.48-4.544 0-3.636-3.111-4.877-6.017-5.633z" data-name="Icon material-attach-money"/>
    </g>
</svg>