<svg xmlns="http://www.w3.org/2000/svg" width="18.5" height="21" viewBox="0 0 18.5 21">
    <defs>
        <style>
            .cls-1{fill:none;stroke:#000}
        </style>
    </defs>
    <path id="Icon_awesome-passport" d="M5.063 6.875H6.59a8.814 8.814 0 0 1 .555-2.75 3.744 3.744 0 0 0-2.082 2.75zm0 1.25a3.745 3.745 0 0 0 2.082 2.75 8.8 8.8 0 0 1-.555-2.75zM8.75 11.2a5.314 5.314 0 0 0 .915-3.074H7.834A5.318 5.318 0 0 0 8.75 11.2zm-.915-4.325h1.831A5.315 5.315 0 0 0 8.75 3.8a5.312 5.312 0 0 0-.916 3.074zm2.52 4a3.744 3.744 0 0 0 2.082-2.75H10.91a8.8 8.8 0 0 1-.555 2.75zM16.25 0H2.5A2.5 2.5 0 0 0 0 2.5v15A2.5 2.5 0 0 0 2.5 20h13.75a1.25 1.25 0 0 0 1.25-1.25V1.25A1.25 1.25 0 0 0 16.25 0zm-3.125 16.25h-8.75a.625.625 0 0 1 0-1.25h8.75a.625.625 0 0 1 0 1.25zM8.75 12.5a5 5 0 1 1 5-5 5 5 0 0 1-5 5zm1.6-8.375a8.8 8.8 0 0 1 .555 2.75h1.527a3.744 3.744 0 0 0-2.077-2.75z" class="cls-1" data-name="Icon awesome-passport" transform="translate(.5 .5)"/>
</svg>